<svg width="80" height="80" viewBox="0 0 80 80" fill="none" xmlns="http://www.w3.org/2000/svg">
<path d="M80 40C80 62.0914 62.0914 80 40 80C17.9086 80 0 62.0914 0 40C0 17.9086 17.9086 0 40 0C62.0914 0 80 17.9086 80 40Z" fill="#033B62"/>
<path d="M40 3.34766C50.1728 3.34766 60.0713 4.52172 69.5677 6.74141C70.2622 10.5278 70.625 14.4302 70.625 18.4175C70.625 41.5845 58.3755 61.8903 40 73.2117C21.6245 61.8903 9.375 41.5844 9.375 18.4175C9.375 14.4303 9.73781 10.5278 10.4323 6.74141C19.9288 4.52172 29.8272 3.34766 40 3.34766Z" fill="#FF9100"/>
<path d="M69.5677 6.74141C70.262 10.5278 70.625 14.4302 70.625 18.4175C70.625 36.8098 62.9042 53.3988 50.527 65.1205C41.6181 55.7781 35.9375 41.6237 35.9375 25.7797C35.9375 17.7297 37.4039 10.1159 40.0152 3.34766C50.1825 3.34891 60.0759 4.52281 69.5677 6.74141Z" fill="#FFB52D"/>
<path d="M71.1044 6.45953L70.9197 5.45297L69.9231 5.22C60.1727 2.94078 50.1052 1.78516 40 1.78516C29.895 1.78516 19.8273 2.94078 10.0767 5.21984L9.08016 5.45281L8.89547 6.45937C8.17687 10.3773 7.8125 14.4006 7.8125 18.4175C7.8125 29.8675 10.7958 41.1452 16.4398 51.0314C21.913 60.6183 29.7766 68.7481 39.1805 74.542L40.0002 75.047L40.8197 74.542C50.2238 68.7481 58.0872 60.6183 63.5603 51.0314C69.2042 41.1452 72.1875 29.8675 72.1875 18.4175C72.1875 14.4005 71.8231 10.3772 71.1044 6.45953ZM40 71.368C21.7834 59.7655 10.9375 40.0438 10.9375 18.4175C10.9375 14.9334 11.225 11.445 11.7928 8.03234C20.9967 5.96031 30.4809 4.91016 40 4.91016C49.5191 4.91016 59.0034 5.96031 68.2072 8.03234C68.775 11.4448 69.0625 14.9333 69.0625 18.4175C69.0625 40.0438 58.2167 59.7655 40 71.368Z" fill="#FFCD71"/>
<path d="M20.4697 30.3124C20.4697 19.429 29.3716 10.6246 40.2914 10.7834C50.8399 10.9366 59.4272 19.5663 59.5311 30.1154C59.586 35.6823 57.3118 40.7184 53.6232 44.309C52.7299 45.1785 51.48 45.5766 50.2482 45.3852C46.9966 44.8802 43.558 44.6093 40.001 44.6093C36.4636 44.6093 33.0435 44.8771 29.8079 45.3768C28.5524 45.5707 27.271 45.1796 26.3618 44.2926C22.7266 40.7456 20.4697 35.7926 20.4697 30.3124Z" fill="#FFD993"/>
<path fill-rule="evenodd" clip-rule="evenodd" d="M33.2051 32.7902C33.2051 33.3971 32.7181 33.8889 32.1176 33.8889C31.517 33.8889 31.0303 33.3971 31.0303 32.7902C31.0303 32.1834 31.517 31.6914 32.1176 31.6914C32.7181 31.6914 33.2051 32.1834 33.2051 32.7902Z" fill="#033B62"/>
<path fill-rule="evenodd" clip-rule="evenodd" d="M37.5879 32.7902C37.5879 33.3971 37.1009 33.8889 36.5006 33.8889C35.9001 33.8889 35.4131 33.3971 35.4131 32.7902C35.4131 32.1834 35.9001 31.6914 36.5006 31.6914C37.1009 31.6914 37.5879 32.1834 37.5879 32.7902Z" fill="#033B62"/>
<path fill-rule="evenodd" clip-rule="evenodd" d="M44.3082 19C46.8994 19 49.0001 21.1222 49.0001 23.7405C49.0001 26.3586 46.8996 28.481 44.3082 28.481C41.7169 28.481 39.6162 26.3586 39.6162 23.7405C39.6162 21.1224 41.7169 19 44.3082 19ZM44.3082 21.1109C42.8707 21.1109 41.7055 22.2884 41.7055 23.7405C41.7055 25.1926 42.8707 26.3701 44.3082 26.3701C45.7456 26.3701 46.9108 25.1928 46.9108 23.7405C46.9108 22.2881 45.7456 21.1109 44.3082 21.1109Z" fill="#033B62"/>
<path fill-rule="evenodd" clip-rule="evenodd" d="M38.1239 28.2599H38.1226L29 19.019L38.1239 19V28.2599Z" fill="#033B62"/>
<path fill-rule="evenodd" clip-rule="evenodd" d="M48.6586 30.8594L44.165 35.4026L48.6586 39.9985V30.8594Z" fill="#033B62"/>
<path fill-rule="evenodd" clip-rule="evenodd" d="M44.1098 30.8594L39.6162 35.4026L44.1098 39.9985V30.8594Z" fill="#033B62"/>
<path d="M40.0009 38.6836C45.3227 38.6836 50.1472 40.812 53.6698 44.2639C50.1472 47.7159 45.3225 49.8444 40.0009 49.8444C34.6792 49.8444 29.8547 47.7159 26.332 44.2641C29.8547 40.812 34.6792 38.6836 40.0009 38.6836Z" fill="#FFCD71"/>
<path d="M57.3051 19.2998L55.7945 20.0031C55.7482 20.0247 55.708 20.0572 55.6773 20.0978L54.6715 21.4262C54.5293 21.6141 54.2385 21.583 54.139 21.3695L53.4357 19.8589C53.4141 19.8127 53.3816 19.7725 53.341 19.7417L52.0126 18.7359C51.8248 18.5937 51.8559 18.303 52.0693 18.2034L53.5799 17.5002C53.6262 17.4786 53.6663 17.4461 53.6971 17.4055L54.7029 16.077C54.8451 15.8892 55.1359 15.9203 55.2354 16.1337L55.9387 17.6444C55.9602 17.6906 55.9927 17.7308 56.0334 17.7616L57.3618 18.7673C57.5496 18.9095 57.5187 19.2003 57.3051 19.2998Z" fill="#FFE7C0"/>
<path d="M55.0371 5.18596L57.788 4.38018C58.0251 4.3108 58.2452 4.5308 58.1759 4.76799L57.3701 7.51893C57.3532 7.57627 57.3532 7.63721 57.3701 7.69455L58.1759 10.4455C58.2452 10.6825 58.0252 10.9027 57.788 10.8333L55.0371 10.0275C54.9798 10.0106 54.9188 10.0106 54.8615 10.0275L52.1105 10.8333C51.8735 10.9027 51.6534 10.6827 51.7227 10.4455L52.5285 7.69455C52.5452 7.63721 52.5452 7.57627 52.5285 7.51893L51.7227 4.76799C51.6534 4.53096 51.8734 4.3108 52.1105 4.38018L54.8615 5.18596C54.9188 5.20268 54.9798 5.20268 55.0371 5.18596ZM34.3904 45.7638L33.3846 47.0922C33.3538 47.1328 33.3135 47.1653 33.2674 47.1869L31.7568 47.8902C31.5434 47.9896 31.5123 48.2805 31.7001 48.4227L33.0285 49.4285C33.0691 49.4592 33.1016 49.4995 33.1232 49.5456L33.8265 51.0563C33.9259 51.2697 34.2168 51.3008 34.359 51.113L35.3648 49.7845C35.3955 49.7439 35.4359 49.7114 35.482 49.6899L36.9926 48.9866C37.206 48.8872 37.2371 48.5963 37.0493 48.4541L35.7209 47.4483C35.6802 47.4175 35.6477 47.3772 35.6262 47.3311L34.9229 45.8205C34.8234 45.6069 34.5326 45.576 34.3904 45.7638Z" fill="white"/>
<path d="M71.7145 55.475C71.5788 57.2552 70.0131 59.5303 67.5473 61.2593C65.3406 62.8064 62.9681 63.5268 61.2612 63.3175C60.7661 63.9218 60.2489 64.5128 59.71 65.0897C58.4855 66.4007 57.1764 67.6093 55.7939 68.7105C58.6356 68.2271 61.2241 68.6917 62.5514 69.7943C61.6992 71.3632 59.3398 72.7986 56.3825 73.3674C53.6845 73.8863 51.1811 73.5505 49.72 72.6214C47.9134 73.5425 46.0286 74.311 44.0825 74.9193C44.5145 74.9546 44.9489 74.9822 45.3855 75.0021C45.8164 75.0216 46.1502 75.3868 46.1306 75.8178C46.1111 76.2488 45.7459 76.5825 45.3148 76.563C43.5136 76.4816 41.7383 76.2728 39.9998 75.9418C38.2614 76.2727 36.4863 76.4814 34.6848 76.563C34.2539 76.5825 33.8886 76.2488 33.8691 75.8178C33.8495 75.3868 34.1833 75.0216 34.6142 75.0021C35.0508 74.9824 35.4852 74.9547 35.9172 74.9193C33.9711 74.311 32.0862 73.5424 30.2797 72.6214C28.8186 73.5505 26.3152 73.8863 23.6172 73.3674C20.66 72.7986 18.3006 71.363 17.4483 69.7943C18.7756 68.6917 21.3641 68.2271 24.2058 68.7105C22.8231 67.6093 21.5142 66.4007 20.2897 65.0897C19.7508 64.5128 19.2336 63.9218 18.7384 63.3175C17.0316 63.5268 14.6591 62.8066 12.4523 61.2593C9.98656 59.5305 8.42109 57.2552 8.28516 55.475C9.88953 55.0282 12.3228 55.6041 14.6439 57.0868C11.9002 51.7507 10.582 45.7882 10.8594 39.6561C10.8789 39.2252 11.2441 38.8914 11.6752 38.911C12.1061 38.9305 12.4398 39.2957 12.4203 39.7268C12.0792 47.2678 14.3098 54.3536 18.3511 60.1702C18.1053 59.2014 17.9695 58.1144 17.9742 56.9666C17.9866 53.9552 18.9613 51.3711 20.3456 50.2436C21.7206 51.3825 22.6741 53.9744 22.6617 56.9858C22.6508 59.6413 21.8917 61.9644 20.7633 63.2496C23.0466 65.8444 25.727 68.1019 28.7166 69.9274C27.8778 69.0049 27.1089 67.7918 26.5264 66.3843C25.375 63.6016 25.2764 60.8416 26.118 59.2671C27.8261 59.7868 29.7064 61.8094 30.8578 64.5921C31.9397 67.2069 32.092 69.8018 31.4083 71.4118C34.0869 72.738 36.9688 73.7347 40.0003 74.3443C43.0319 73.7346 45.9137 72.738 48.5923 71.4118C47.9084 69.8018 48.0608 67.2069 49.1428 64.5921C50.2942 61.8094 52.1745 59.7866 53.8827 59.2671C54.7242 60.8418 54.6256 63.6018 53.4742 66.3843C52.8919 67.7918 52.123 69.0049 51.2841 69.9274C54.2736 68.1018 56.9541 65.8444 59.2373 63.2496C58.1089 61.9644 57.3497 59.6413 57.3389 56.9858C57.3266 53.9744 58.28 51.3825 59.655 50.2436C61.0392 51.3711 62.0139 53.9552 62.0264 56.9666C62.0311 58.1146 61.8955 59.2014 61.6495 60.1702C65.6908 54.3536 67.9213 47.2677 67.5803 39.7268C67.5608 39.2958 67.8945 38.9305 68.3255 38.911C68.7566 38.8914 69.1217 39.2252 69.1413 39.6561C69.4186 45.7882 68.1005 51.7507 65.3564 57.0868C67.6769 55.6041 70.1102 55.0282 71.7145 55.475Z" fill="#9BCF1B"/>
<path d="M14.2263 52.0963C14.7714 53.6574 15.4308 55.1692 16.1949 56.6217C16.4197 57.0491 16.218 57.576 15.7642 57.7408C15.3885 57.8774 14.9713 57.7131 14.7853 57.3592C13.9267 55.7252 13.2027 54.0313 12.6182 52.2906C10.9824 51.8941 9.05987 50.5455 7.49612 48.5341C5.64784 46.1566 4.8205 43.5216 5.21425 41.7802C6.96206 41.8271 9.25175 43.2202 11.0817 45.511C10.8472 43.5972 10.7705 41.6508 10.8577 39.6871C10.8757 39.2803 11.1925 38.931 11.5991 38.9113C12.066 38.8886 12.4405 39.271 12.4199 39.7269C12.3041 42.2867 12.4847 44.7941 12.9317 47.2171C13.0489 46.6111 13.2149 45.9888 13.4319 45.3622C14.4174 42.5166 16.1752 40.3866 17.8497 39.7672C18.7825 41.2896 18.8467 44.0505 17.8613 46.8961C17.0288 49.2997 15.6452 51.193 14.2263 52.0963ZM62.1378 46.896C61.1524 44.0503 61.2166 41.2892 62.1494 39.7671C63.8239 40.3864 65.5819 42.5166 66.5672 45.3621C66.7841 45.9885 66.9502 46.611 67.0674 47.2169C67.5144 44.7938 67.695 42.2866 67.5792 39.7267C67.5586 39.2708 67.9332 38.8885 68.4 38.9111C68.8067 38.9308 69.1235 39.2802 69.1414 39.6869C69.2286 41.6506 69.1519 43.5969 68.9174 45.5108C70.7474 43.2202 73.0369 41.8271 74.7849 41.78C75.1786 43.5214 74.3513 46.1564 72.503 48.5339C70.9392 50.5453 69.0167 51.8939 67.381 52.2905C66.7963 54.0311 66.0724 55.725 65.2138 57.3591C65.0278 57.713 64.6106 57.8772 64.2349 57.7406C63.7811 57.5756 63.5794 57.0489 63.8042 56.6216C64.5683 55.1691 65.2277 53.6574 65.7728 52.0961C64.3539 51.193 62.9703 49.2997 62.1378 46.896Z" fill="#B9E746"/>
<path d="M14.1696 37.3005C14.0807 39.2675 13.5881 41.0352 12.8581 42.3222C12.2901 43.3236 10.815 43.257 10.3398 42.2083C9.72902 40.8606 9.39792 39.0558 9.48699 37.0886C9.62308 34.0803 10.7031 31.5384 12.1325 30.4688C13.4595 31.6631 14.3056 34.292 14.1696 37.3005ZM67.8684 30.4688C69.2978 31.5384 70.3779 34.0803 70.5139 37.0886C70.6028 39.0556 70.2718 40.8606 69.661 42.2083C69.1857 43.2569 67.7107 43.3236 67.1428 42.3222C66.4128 41.0352 65.9203 39.2675 65.8312 37.3005C65.6953 34.292 66.5414 31.6631 67.8684 30.4688Z" fill="#CAED73"/>
</svg>
